<svg width="22" height="22" viewBox="0 0 22 22" fill="none" xmlns="http://www.w3.org/2000/svg">
<g clip-path="url(#clip0_1_11)">
<path d="M18.8214 7.41669V9.53573H19.881V11.6548H18.8214V13.7738H2.92857V7.41669H18.8214ZM19.3512 5.29764H2.39881C1.52106 5.29764 0.809525 6.00917 0.809525 6.88692V14.3036C0.809525 15.1813 1.52106 15.8929 2.39881 15.8929H19.3512C20.2289 15.8929 20.9405 15.1813 20.9405 14.3036V13.7738H21.2054C21.6442 13.7738 22 13.4181 22 12.9792V8.21133C22 7.77245 21.6442 7.41669 21.2054 7.41669H20.9405V6.88692C20.9405 6.00917 20.2289 5.29764 19.3512 5.29764ZM14.5833 8.47621H3.9881V12.7143H14.5833V8.47621Z" fill="black"/>
</g>
<defs>
<clipPath id="clip0_1_11">
<rect width="21.1905" height="21.1905" fill="white" transform="translate(0.809509)"/>
</clipPath>
</defs>
</svg>
