<svg width="22" height="22" viewBox="0 0 22 22" fill="none" xmlns="http://www.w3.org/2000/svg">
<path d="M7.15178 11.6548H5.5625C5.2698 11.6548 5.03273 11.8918 5.03273 12.1845V18.5417C5.03273 18.8344 5.2698 19.0714 5.5625 19.0714H7.15178C7.44448 19.0714 7.68154 18.8344 7.68154 18.5417V12.1845C7.68154 11.8918 7.44448 11.6548 7.15178 11.6548ZM2.91369 14.8333H1.3244C1.03171 14.8333 0.79464 15.0704 0.79464 15.3631V18.5417C0.79464 18.8344 1.03171 19.0714 1.3244 19.0714H2.91369C3.20638 19.0714 3.44345 18.8344 3.44345 18.5417V15.3631C3.44345 15.0704 3.20638 14.8333 2.91369 14.8333ZM11.3899 8.47619H9.80059C9.5079 8.47619 9.27083 8.71326 9.27083 9.00595V18.5417C9.27083 18.8344 9.5079 19.0714 9.80059 19.0714H11.3899C11.6826 19.0714 11.9196 18.8344 11.9196 18.5417V9.00595C11.9196 8.71326 11.6826 8.47619 11.3899 8.47619ZM15.628 5.29762H14.0387C13.746 5.29762 13.5089 5.53469 13.5089 5.82738V18.5417C13.5089 18.8344 13.746 19.0714 14.0387 19.0714H15.628C15.9207 19.0714 16.1577 18.8344 16.1577 18.5417V5.82738C16.1577 5.53469 15.9207 5.29762 15.628 5.29762ZM19.8661 2.11905H18.2768C17.9841 2.11905 17.747 2.35612 17.747 2.64881V18.5417C17.747 18.8344 17.9841 19.0714 18.2768 19.0714H19.8661C20.1588 19.0714 20.3958 18.8344 20.3958 18.5417V2.64881C20.3958 2.35612 20.1588 2.11905 19.8661 2.11905Z" fill="black"/>
</svg>
