<svg width="23" height="22" viewBox="0 0 23 22" fill="none" xmlns="http://www.w3.org/2000/svg">
<g clip-path="url(#clip0_1_9)">
<path d="M21.9267 7.24716C16.0606 1.82141 6.93709 1.82339 1.07329 7.24716C0.852774 7.45112 0.84847 7.79646 1.0617 8.00803L2.19539 9.13278C2.39869 9.33475 2.72581 9.33906 2.93706 9.14536C7.76848 4.7192 15.2308 4.71821 20.0633 9.14536C20.2745 9.33906 20.6016 9.33442 20.8049 9.13278L21.9386 8.00803C22.1515 7.79646 22.1472 7.45112 21.9267 7.24716ZM11.5 13.7738C10.3296 13.7738 9.38095 14.7224 9.38095 15.8929C9.38095 17.0633 10.3296 18.0119 11.5 18.0119C12.6704 18.0119 13.619 17.0633 13.619 15.8929C13.619 14.7224 12.6704 13.7738 11.5 13.7738ZM18.2104 11.0062C14.3941 7.63124 8.60154 7.63488 4.78957 11.0062C4.56111 11.2081 4.55382 11.5588 4.77069 11.7727L5.91101 12.8981C6.10967 13.0941 6.42951 13.1073 6.64109 12.9246C9.42068 10.5218 13.5856 10.527 16.3586 12.9246C16.5701 13.1073 16.89 13.0944 17.0887 12.8981L18.229 11.7727C18.4462 11.5588 18.4386 11.2078 18.2104 11.0062Z" fill="black"/>
</g>
<defs>
<clipPath id="clip0_1_9">
<rect width="21.1905" height="21.1905" fill="white" transform="translate(0.904755)"/>
</clipPath>
</defs>
</svg>
